<svg id="eCRJ6ldkwp01" xmlns="http://www.w3.org/2000/svg" xmlns:xlink="http://www.w3.org/1999/xlink" viewBox="0 0 758 839" shape-rendering="geometricPrecision" text-rendering="geometricPrecision"><style><![CDATA[#eCRJ6ldkwp05_tr {animation: eCRJ6ldkwp05_tr__tr 3000ms linear infinite normal forwards}@keyframes eCRJ6ldkwp05_tr__tr { 0% {transform: translate(429.525388px,675.155897px) rotate(0deg)} 33.333333% {transform: translate(429.525388px,675.155897px) rotate(-5deg)} 53.333333% {transform: translate(429.525388px,675.155897px) rotate(2.279009deg)} 66.666667% {transform: translate(429.525388px,675.155897px) rotate(2deg)} 100% {transform: translate(429.525388px,675.155897px) rotate(0deg)}} #eCRJ6ldkwp06_tr {animation: eCRJ6ldkwp06_tr__tr 3000ms linear infinite normal forwards}@keyframes eCRJ6ldkwp06_tr__tr { 0% {transform: translate(436.526289px,679.261822px) rotate(0deg)} 50% {transform: translate(436.526289px,679.261822px) rotate(1deg)} 100% {transform: translate(436.526289px,679.261822px) rotate(-2deg)}} #eCRJ6ldkwp013_tr {animation: eCRJ6ldkwp013_tr__tr 3000ms linear infinite normal forwards}@keyframes eCRJ6ldkwp013_tr__tr { 0% {transform: translate(342.631653px,674.280001px) rotate(0deg)} 50% {transform: translate(342.631653px,674.280001px) rotate(-2deg)} 100% {transform: translate(342.631653px,674.280001px) rotate(0deg)}} #eCRJ6ldkwp026_tr {animation: eCRJ6ldkwp026_tr__tr 3000ms linear infinite normal forwards}@keyframes eCRJ6ldkwp026_tr__tr { 0% {transform: translate(449.313477px,403.63px) rotate(0deg);animation-timing-function: cubic-bezier(0.68,-0.55,0.265,1.55)} 33.333333% {transform: translate(449.313477px,403.63px) rotate(2deg);animation-timing-function: cubic-bezier(0.68,-0.55,0.265,1.55)} 66.666667% {transform: translate(449.313477px,403.63px) rotate(-2deg);animation-timing-function: cubic-bezier(0.68,-0.55,0.265,1.55)} 100% {transform: translate(449.313477px,403.63px) rotate(0deg)}} #eCRJ6ldkwp033_to {animation: eCRJ6ldkwp033_to__to 3000ms linear infinite normal forwards}@keyframes eCRJ6ldkwp033_to__to { 0% {transform: translate(420.810852px,198.869354px)} 33.333333% {transform: translate(422.702608px,193.879735px)} 66.666667% {transform: translate(420.619722px,203.688935px)} 100% {transform: translate(420.825659px,198.370437px)}} #eCRJ6ldkwp034_to {animation: eCRJ6ldkwp034_to__to 3000ms linear infinite normal forwards}@keyframes eCRJ6ldkwp034_to__to { 0% {transform: translate(561.576569px,255.88015px)} 33.333333% {transform: translate(562.445837px,251.182793px)} 66.666667% {transform: translate(560.755581px,259.311117px)} 100% {transform: translate(561.576569px,255.88015px)}} #eCRJ6ldkwp052_tr {animation: eCRJ6ldkwp052_tr__tr 3000ms linear infinite normal forwards}@keyframes eCRJ6ldkwp052_tr__tr { 0% {transform: translate(296.658203px,284.38916px) rotate(0deg);animation-timing-function: cubic-bezier(0.68,-0.55,0.265,1.55)} 33.333333% {transform: translate(296.658203px,284.38916px) rotate(5deg)} 66.666667% {transform: translate(296.658203px,284.38916px) rotate(-5deg)} 100% {transform: translate(296.658203px,284.38916px) rotate(0deg)}} #eCRJ6ldkwp092_tr {animation: eCRJ6ldkwp092_tr__tr 3000ms linear infinite normal forwards}@keyframes eCRJ6ldkwp092_tr__tr { 0% {transform: translate(483.360924px,458.54953px) rotate(0deg)} 50% {transform: translate(483.360924px,458.54953px) rotate(-5deg)} 100% {transform: translate(483.360924px,458.54953px) rotate(0deg)}}]]></style><path d="M283.14,297.63c.6-1.33,3.22-7.65,2.09-11.09-.49-1.47-1.64-2.18-3.53-2.15-.674-.006-1.341.143-1.949.434-.609.291-1.142.717-1.561,1.246-2.74,3.46-1.68,11.17-1.28,13.53l6.23-1.97Z" fill="#ebad86"/><path d="M306.34,341c0,0,32.82,66.52,101.4,71.87c13.87,10.16-3.8,15.44-3.8,15.44s-63.72,9.47-113.75-82.68L306.34,341Z" fill="#c87e42"/><path d="M305.78,342.07c-3.34,1.79-5.23,1.95-11.61,5.53c3.115,7.821,7.327,15.158,12.51,21.79-.88-4.21-6-8.74-2.36-11.22c4.94-3.31,11.24,2.57,14.4,5.21-5.183-6.537-9.53-13.696-12.94-21.31v0Z" fill="#ebad86"/><g id="eCRJ6ldkwp05_tr" transform="translate(429.525388,675.155897) rotate(0)"><g transform="translate(-429.525386,-675.155896)"><g id="eCRJ6ldkwp06_tr" transform="translate(436.526289,679.261822) rotate(0)"><path d="M470.2,783.55c0,0-29.69-53.55-41.41-99.95-.07-.33-.16-.64-.25-1-.47-2-.94-3.87-1.35-5.79c7.74-1.72,17.74-4.19,17.74-4.19s18.4,64,41.63,104.41c-.925.863-1.929,1.636-3,2.31l-.08.06c-4.002,2.488-8.572,3.916-13.28,4.15Z" transform="translate(-436.41577,-677.601822)" fill="#c87e42"/></g><g transform="translate(.000001 0.000001)"><path d="M482.26,767.62c7.3,1.94,15.49,12.91,14.21,22.37-5.18,13.75-28.71,33.71-49.71,31.18-19.57-2.36-20.22-17.85-13.12-26c5.73-6.6,22.8-6,27.32-21.3c0-5.6,8.38-6.88,9.68,3.44c8.82,2.35,11.62-9.69,11.62-9.69Z" transform="translate(0 1.66)" fill="#ef462c"/><path d="M464.47,769.59c-.559.308-1.158.541-1.78.69.525-.379,1.138-.617,1.78-.69v0Z" fill="#414042"/><path d="M496.89,787.62c0,0,4.29,4.94,2.78,10.32-6.66,13.33-27.31,26.45-42.58,29s-23-4.08-21.95-10.32c15.93,2.38,42.16,1.54,61.75-29Z" fill="#e0e1e2"/><path d="M470.69,778.63c5.28,3.49-3.5,11.82-6.42,11-4.73-1.26-11.23-3.93-14.93-4.22-.85-1.85,4.89-9.23,9-9.65c4.308-.254,8.597.743,12.35,2.87Z" fill="#e0e1e2"/><path d="M455.33,789.23c5.28,3.49-3.5,11.82-6.41,11-4.73-1.26-11.23-3.93-14.93-4.22-.85-1.86,4.88-9.23,8.95-9.65c4.321-.267,8.627.73,12.39,2.87v0Z" fill="#e0e1e2"/></g></g></g><g id="eCRJ6ldkwp013_tr" transform="translate(342.631653,674.280001) rotate(0)"><g transform="translate(-342.631653,-674.280001)"><path d="M320.46,782.86c0,0-1.95-61.21,8.81-107.83.08-.31.14-.64.22-1c.48-1.94.93-3.87,1.45-5.77c7.66,2,17.7,4.38,17.7,4.38s-12.89,65.36-10.64,111.94c-1.21.338-2.449.569-3.7.69-.029-.011-.061-.011-.09,0-4.714.401-9.452-.43-13.75-2.41v0Z" fill="#c87e42"/><path d="M338.45,774.2c5.62,5.06,7.87,18.57,2.42,26.39-10.89,9.88-40.95,16.89-58.46,5-16.34-11-9.83-25.12.21-29.12c8.12-3.27,23,5,34-6.48c2.55-5,10.6-2.3,7,7.47c6.84,6.18,14.83-3.26,14.83-3.26Z" fill="#ef462c"/><path d="M321.73,767.84c-.643.021-1.285-.046-1.91-.2.643-.106,1.303-.036,1.91.2v0Z" fill="#414042"/><path d="M342.32,798.69c0,0,1.58,6.36-2.23,10.44-12,8.82-36.39,11.06-51.15,6.38s-18.61-14.14-14.81-19.21c13.09,9.38,36.87,20.61,68.19,2.39Z" fill="#e0e1e2"/><path d="M323.64,778.91c3.1,5.52-8.52,8.91-10.76,6.89-3.62-3.29-8.17-8.63-11.35-10.58.11-2,8.56-6,12.37-4.48c3.978,1.709,7.365,4.55,9.74,8.17v0Z" fill="#e0e1e2"/><path d="M305.91,781.51c3.1,5.52-8.53,8.91-10.76,6.89-3.63-3.3-8.18-8.63-11.35-10.58.11-2,8.56-6,12.37-4.49c3.973,1.721,7.358,4.564,9.74,8.18v0Z" fill="#e0e1e2"/></g></g><path d="M451.71,595.53c2.59,6.87,6.45,45.6,18.93,66.25-17.21,21.94-64.53,25.81-76.57,21.08-7.74-8.59-13.76-41.28-13.76-41.28s-12.08,27-13.81,36.88c-17.65,1.72-61.06-12.38-65.36-17.54c1.3-18,8.7-77.35,25-100.16c47.8,17.24,125.57,34.77,125.57,34.77Z" fill="#00a056"/><path d="M388.77,643.07c3.017.051,6.026-.32,8.94-1.1.162-.057.296-.173.376-.326.08-.152.099-.328.054-.494-.057-.166-.177-.303-.334-.382-.157-.078-.339-.092-.506-.038-.2,0-19.85,6.08-37.41-11.44-.056-.066-.126-.118-.205-.154-.078-.036-.163-.055-.25-.055-.086,0-.172.019-.25.055-.079.036-.149.088-.205.154-.061.058-.11.128-.143.205s-.05.161-.05.245.017.168.05.245.082.147.143.205c10.66,10.68,22.12,12.88,29.79,12.88Z" fill="#007b42"/><path d="M471.79,436.63c0,0-9.48-7.72-16.69-13.64c2.144-6.099,4.975-11.933,8.44-17.39l-14.7-8.07c0,0-7,13.18-9.19,18.79-12.41-1.89-28.62-5.44-28.62-5.44s-22.54,31.74,17.13,46.76c10.44,3.96,38.63-4.32,43.63-21.01Z" fill="#c87e42"/><path d="M448.07,397.49L462.91,406c0,0-5.38,10.07-8.3,17-2.86-4.5-10.42-6.54-14.51-5.73c2.73-5.7,7.97-19.78,7.97-19.78Z" fill="#b95f3a"/><path d="M469.92,433.64c5.2,4.84,11.28,7.3,18.79,16.48-10.44,21.73-33.42,104.4-20,144.9-31.74,22.55-133.33-12.4-152.69-36.25c11.62-14.2,70.43-140.79,75.43-149.14c8.188-.016,16.362.68,24.43,2.08-17.57,32.15,35.66,64.5,54.04,21.93Z" fill="#ef462c"/><path d="M366.73,460.23l2.22-4.61c38.79,29.3,81,35.82,105.92,36.78-.41,1.63-.82,3.28-1.21,5-3.06-.15-6.32-.34-9.82-.67-25.84-2.44-62.73-10.83-97.11-36.5ZM380.34,432c-.73,1.47-1.46,3-2.22,4.6c33.3,25.63,69.28,34.74,94.64,37.74c2.39.29,4.7.5,6.92.7.49-1.68,1-3.3,1.5-4.89-24.85-1.95-64.53-9.86-100.84-38.15Zm107.89,19.16c-8.782-1.289-17.468-3.163-26-5.61-1.367,1.44-2.874,2.74-4.5,3.88c6.69,2,13,3.58,18.82,4.77c3.41.7,6.63,1.25,9.62,1.71.77-1.78,1.44-3.39,2.06-4.76v.01Zm-75.81-28c-6.425-4.112-12.578-8.635-18.42-13.54-.88,0-1.76,0-2.57,0-.31.54-.86,1.57-1.59,3c7.188,6.151,14.856,11.719,22.93,16.65-.373-2.01-.491-4.06-.35-6.1v-.01Zm34.92,139.75c6.58,0,12.4-.31,17.28-.75c0-1.67.07-3.33.13-5-25.52,2.35-79.34,1.69-128.43-35-.79,1.52-1.56,3-2.31,4.52c40.61,30.03,84.24,36.24,113.33,36.24v-.01Zm21.83-44.11c.3-1.66.6-3.34.93-5-25.69.08-70.64-5-112-35.74-.74,1.52-1.49,3.05-2.23,4.58c36.58,26.85,75.75,34.37,102.7,35.84c3.77.23,7.33.33,10.6.33v-.01Zm-28.09,67.51c8.4.013,16.791-.525,25.12-1.61-.3-1.63-.52-3.29-.73-5-21.86,3-84.37,6.45-139.62-37.48-.85,1.57-1.67,3.05-2.44,4.46c41.81,32.98,87.59,39.64,117.67,39.64v-.01ZM466,540.77c.19-1.67.38-3.36.59-5-26,1.07-74.66-2.46-119.21-35.73-.747,1.533-1.497,3.053-2.25,4.56c38.44,28.4,79.79,35.4,107.78,36.2c4.77.2,9.14.1,13.09-.03Z" fill="#ffe6cc"/><g id="eCRJ6ldkwp026_tr" transform="translate(449.313477,403.63) rotate(0)"><g transform="translate(-449.313457,-403.629999)"><path d="M634,336.5C604.69,415.3,513,441,437.16,412.77s-107.16-99.49-77.93-178.3s113.41-117,189.29-88.82s114.69,112.06,85.48,190.85Z" fill="#c87e42"/><path d="M625.73,334.9c0,0,7.79-15.32,28.14-10.94c21.45,4.64,20.43,34.52,3.85,46.9s-39.64,4.8-42.48-10.28l10.49-25.68Z" fill="#c87e42"/><path d="M655.5,332.39c-12.68-6.82-31.38,13.26-17.2,31.6-2.19-19.28,6.76-22.69,13.78-11.51c1.7-5.5-.52-10.05-8.83-12.13c3.01-7.01,12.25-7.96,12.25-7.96Z" fill="#864e24"/><path d="M484.41,262.9c-4.34,7.45-28.47,8.72-24.53,21.31c2.44,7.79,13.86,10.42,18.47-1.63c2.65-6.99,6.06-19.68,6.06-19.68Z" fill="#c55046"/><path d="M507.44,337.86c-3,7.81,6.41,18.67,21,24.26s28.84,3.77,31.83-4-6.41-18.67-21-24.25-28.84-3.82-31.83,3.99Z" fill="#c55046"/><path d="M357.4,280.45c-3,7.81,6.41,18.67,21,24.25s28.83,3.78,31.82-4-6.41-18.66-21-24.25-28.83-3.81-31.82,4Z" fill="#c55046"/><g id="eCRJ6ldkwp033_to" transform="translate(420.810852,198.869354)"><path d="M423,191.79c15.63-.49,14.68,16.31,5,13.94-10.4-2.56-20-.93-21.08-2.25-2.32-2.92,7.3-11.42,16.08-11.69Z" transform="translate(-420.810852,-198.869354)" fill="#411f19"/></g><g id="eCRJ6ldkwp034_to" transform="translate(561.576569,255.88015)"><path d="M565.23,248c-12.83-9-21.2,5.66-11.79,9c10.12,3.53,17.3,10.15,18.9,9.61c3.53-1.2.11-13.61-7.11-18.61Z" transform="translate(-561.576569,-255.88015)" fill="#411f19"/></g><path d="M417.24,305.48c13.38-2.93,13,9.79,36.76,19c24.26,9.43,32.2-.9,40.33,12.72C501,348.33,476.4,387,436.85,371c-39.85-16.14-32.34-62.74-19.61-65.52Z" fill="#542425"/><path d="M467.63,372.94c-8.67,2.71-19.07,2.77-30.78-2-11-4.44-18.36-11.2-23-18.71c7.63.36,17.27,2.33,28.94,6.88c11.11,4.39,19.21,9.18,24.84,13.83Z" fill="#ed756d"/><path d="M421.86,305.1c9.07.72,32.14,19.41,32.14,19.41s29.7,1.59,36.93,8.35c-4.59,11.27-25.47,12.73-42.2,6-16.57-6.72-31.42-22.59-26.87-33.76Z" fill="#fff"/><path d="M429.9,243.54c-.16,15.14-11.88,27.3-26.17,27.16s-25.73-12.54-25.61-27.7s11.88-27.3,26.17-27.16s25.77,12.56,25.61,27.7Z" fill="#fff"/><g transform="translate(.000001 0.000001)"><path d="M413.45,240.87c-.1,9.34-7.33,16.84-16.14,16.75s-15.89-7.73-15.79-17.07s7.32-16.84,16.14-16.76s15.89,7.75,15.79,17.08Z" fill="#231f20"/><path d="M396.84,235.53c-.401.818-1.032,1.501-1.816,1.965s-1.687.688-2.597.646c-.91-.043-1.787-.351-2.525-.886-.737-.535-1.301-1.275-1.624-2.127-.322-.852-.388-1.779-.19-2.669.198-.889.652-1.701,1.306-2.335s1.479-1.064,2.374-1.235s1.82-.077,2.662.271c1.158.532,2.06,1.499,2.511,2.691s.415,2.514-.101,3.679v0Z" fill="#fff"/><path d="M405.32,251.35c-.246.511-.636.939-1.123,1.231-.486.292-1.048.434-1.615.41-.566-.025-1.114-.215-1.574-.547s-.812-.792-1.013-1.322c-.201-.531-.242-1.109-.118-1.662.124-.554.407-1.059.816-1.453.408-.394.923-.66,1.48-.764.558-.104,1.134-.043,1.657.177.714.329,1.27.926,1.549,1.66.278.735.257,1.55-.059,2.27v0Z" fill="#fff"/></g><path d="M382.45,222.25c0,0,28.09-14.76,48.23,11.65-14.81-38.29-48.23-11.65-48.23-11.65Z" fill="#411f19"/><path d="M557,315.17c.386-.003.76-.131,1.068-.363s.533-.557.642-.927c5-17.31-4.11-32.75-15.8-36.31-7.7-2.33-17.55.43-22.23,15.14-.086.228-.125.471-.114.715.011.243.071.482.178.702.106.219.257.414.441.573.185.16.4.279.633.352s.478.098.72.073c.243-.025.478-.1.691-.219.212-.119.398-.28.547-.474.148-.194.255-.415.314-.652c3.3-10.39,10-15.19,17.79-12.8c10,3.06,17.82,16.6,13.4,31.91-.128.451-.073.934.151,1.345s.601.718,1.049.855c.17.048.344.075.52.08Z" fill="#5c332d"/><path d="M599.47,63.17c26.45-25.18,58.1-15.53,55.64,13.65c27-10.21,31.1,4.71,20.53,18.23c29.12-13.68,65.47,22.19,41.07,54.83c16.65-1.33,25,18.43,6,27.9c30.46-5.69,52.83,55.14,12.94,69.77c29.28,13.73,20,61.45-22.6,53.63c22.13,23.13,4.72,63.94-15.52,37.15.31,33.72-30,34.09-35.46-6.14-14.74,16.59-44.23,5.92-44.15-5-24,20.2-20.85-30.82-5.41-40.23-27.38,1.52-19.87-26.3-10.52-33.8-29.2,17.58-35.25-25.95-17.15-30.9-19.54,1.53-26.5-19.81-14-18.08-15.74-3.17-15.82-29.34,3.34-32.51-12.4-5.63-38.89-37.44-46.49-6.88s-24.84,2.18-26.52-17.72c-15.72,53.18-45.61,28.36-54.51,12.47c3.2,40.56-28.92,29.61-34,9-8.68,29.23-42.89,11-29.52-5.84-21.74,1.87-26.59-24.53-3.55-29.27-27.06-7-19.8-50.11,9.4-39.52-18.18-19.32,1-29.19,10.7-24.11-5.25-23.75,21.72-40.64,38.38-20.8-6.39-38.86,49.61-35.74,58.28-22.25C493.69,-4.1,537,-14,534.15,28.42c21.82-12.81,27.91,6.42,23.27,18.79c27.52-23.4,54.74-22.21,42.05,15.96Z" fill="#5c332d"/></g></g><path d="M286.45,348.45c0,1.149.227,2.286.666,3.347.44,1.061,1.085,2.025,1.898,2.837.812.811,1.777,1.455,2.838,1.894c1.062.438,2.2.663,3.348.662h.1c2.318,0,4.541-.921,6.18-2.56s2.56-3.862,2.56-6.18v-69c0-2.318-.921-4.541-2.56-6.18s-3.862-2.56-6.18-2.56h-.1c-1.148-.001-2.286.224-3.348.662-1.061.439-2.026,1.083-2.838,1.894-.813.812-1.458,1.776-1.898,2.837-.439,1.061-.666,2.198-.666,3.347v69Z" fill="#3d3d3d"/><path d="M290.27,340.24c0,.53.211,1.039.586,1.414s.884.586,1.414.586s1.039-.211,1.414-.586.586-.884.586-1.414v-35.3c0-.53-.211-1.039-.586-1.414s-.884-.586-1.414-.586-1.039.211-1.414.586-.586.884-.586,1.414v35.3Z" fill="#616161"/><path d="M324.86,360.78l91.17,451.46h-19.67L309.5,359.5l15.36,1.28Z" fill="#4b4c4c"/><path d="M374.59,662.94c.126.503.443.938.883,1.212s.97.367,1.477.258c.501-.126.934-.441,1.208-.879s.368-.965.262-1.471L332.06,431.49c-.126-.501-.441-.934-.879-1.208s-.965-.368-1.471-.262v0c-.499.126-.93.439-1.204.875s-.369.961-.266,1.465l46.35,230.58Z" fill="#616161"/><path d="M303.89,364.6h-19.13v474.09h19.13v-474.09Z" fill="#4b4c4c"/><path d="M288.34,672.36c.021.516.241,1.005.614,1.363s.869.557,1.386.557c.519-.018,1.009-.237,1.37-.61.36-.373.561-.871.56-1.39l1.36-239.49c-.02-.516-.24-1.005-.613-1.363s-.87-.557-1.387-.557v0c-.258.003-.513.057-.75.159s-.451.251-.63.437c-.179.187-.319.407-.411.648-.093.241-.137.498-.129.756l-1.37,239.49Z" fill="#616161"/><g id="eCRJ6ldkwp052_tr" transform="translate(296.658203,284.38916) rotate(0)"><g transform="translate(-296.658195,-284.389153)"><path d="M341.07,293.58c1.985-.398,3.767-1.481,5.035-3.059s1.941-3.551,1.903-5.575c-.038-2.023-.785-3.97-2.112-5.499-1.326-1.529-3.148-2.544-5.146-2.867l-79.94-13L255.07,235c-.223-1.112-.663-2.168-1.295-3.11-.631-.942-1.442-1.75-2.386-2.378s-2.003-1.064-3.115-1.283-2.257-.217-3.369.006c-1.111.223-2.168.663-3.11,1.295-.941.632-1.749,1.443-2.378,2.386-.628.944-1.064,2.003-1.283,3.115-.219,1.113-.217,2.257.006,3.369l6.91,34.48c.345,1.724,1.209,3.302,2.477,4.521c1.267,1.219,2.877,2.021,4.613,2.299L338,293.64c1.019.165,2.059.144,3.07-.06v0Z" fill="#3d3d3d"/><path d="M325,271.55l-54.63-8.86c0,0-6,35.21,22.71,37.92c29.74,2.81,31.92-29.06,31.92-29.06Z" fill="#b2b2b0"/><path d="M287.11,283.27c.301,1.513,1.044,2.904,2.136,3.995c1.091,1.091,2.481,1.833,3.995,2.134c1.513.301,3.082.146,4.507-.445c1.426-.592,2.644-1.592,3.5-2.876.857-1.283,1.314-2.792,1.312-4.335-.001-1.543-.459-3.051-1.318-4.333-.858-1.283-2.077-2.282-3.504-2.871-1.426-.589-2.995-.742-4.508-.439-2.027.406-3.81,1.599-4.957,3.319-1.148,1.719-1.566,3.824-1.163,5.851v0Z" fill="#4b4c4c"/><path d="M323.04,167.25L311.41,203.3l-22.31-4.43L300,162.34l23.04,4.91Z" fill="#4b4c4c"/><path d="M377.29,226.39c9.82,6,3.82,25.31-3.52,27.21-26.41-3.38-36.79-4.91-36.79-4.91l4.76-29.59c0,0,18.03,3.62,35.55,7.29Z" fill="#4b4c4c"/><path d="M370.2,224.27c10.47,6.42,4.06,27-3.75,29-28.16-3.6-39.22-5.23-39.22-5.23l5.08-31.54c0,0,19.22,3.86,37.89,7.77Z" fill="#cccdc8"/><path d="M345.92,209c18.12,11.11,7,46.69-6.49,50.18-143.8-18.68-314.5599-32.83-314.5599-32.83l14-93.64c0,0,214.5899,55.35,307.0499,76.29Z" fill="#cccdc8"/><path d="M212.76,213.83l40.78,9c-2,15.61-14.41,23.62-17.48,24.53-14.7-1.54-30-3.25-45.09-5.19c14.75-4.17,21.79-28.34,21.79-28.34Z" fill="#6d6e6e"/><path d="M240,229.31c.095.475.282.928.551,1.331s.615.749,1.018,1.018.856.457,1.331.551c.475.095.965.095,1.44,0l.89-.18c.476-.096.928-.284,1.33-.554.403-.271.749-.618,1.017-1.022s.455-.857.548-1.333.091-.966-.005-1.441v0c-.094-.475-.281-.927-.551-1.33-.269-.402-.615-.748-1.019-1.016-.403-.269-.855-.455-1.331-.548-.475-.094-.964-.092-1.439.004l-.89.17c-.475.096-.927.284-1.33.554-.403.271-.748.618-1.017,1.022-.268.404-.454.857-.548,1.333-.093.476-.091.966.005,1.441v0Z" fill="#cccdc8"/><path d="M213.38,223.81c.095.476.282.93.552,1.333.27.404.617.751,1.021,1.02.404.27.858.457,1.334.55.477.094.967.093,1.443-.003l.88-.18c.476-.094.928-.282,1.331-.551s.749-.615,1.019-1.018c.269-.403.456-.855.551-1.331.094-.475.094-.965-.001-1.44v0c-.094-.476-.282-.93-.551-1.333-.27-.404-.617-.751-1.021-1.02-.405-.27-.858-.457-1.335-.551-.476-.093-.967-.092-1.443.004l-.88.18c-.959.193-1.802.758-2.345,1.571-.544.814-.743,1.809-.555,2.769Z" fill="#cccdc8"/><path d="M36.0004,151.72C128.21,171.18,252.13,198.45,353.78,218.97c1.147,3.361,1.682,6.9,1.58,10.45C239.47,206.57,145.3,187,34.1304,164.44l1.87-12.72Z" fill="#dddeda"/><path d="M330.4,205.46c5.7,1.31,10.9,2.5,15.52,3.54c18.12,11.11,7,46.69-6.49,50.18l-17.92-2.32c11.41-9.64,18.9-36.34,8.89-51.4Z" fill="#4b4c4c"/><path d="M332.52,209.44l18.07,3.69c2.462,3.212,4.01,7.03,4.48,11.05l-20.09-4c-.206-3.693-1.038-7.325-2.46-10.74Z" fill="#5e5f5f"/><path d="M140,158.21l52,12.23c12.81,21.44,2.27,57.86-13.52,71-17.46-2.24-36.95-4.26-54.21-6.46c16.17-15.87,28.4-53.52,15.73-76.77Z" fill="#4b4c4c"/><path d="M34.1404,119.49c11.32,2.91,30.6601,7.87,55.1901,14.13c32.8095,27.55,11.8395,97.36-16,110.18-25.81-2.68-46.0001-4.73-58.1201-6c28.7901-16.49,49.5501-86.54,18.93-118.31Z" fill="#4b4c4c"/><path d="M48,148.27l56.5,12c.873,4.124,1.375,8.317,1.5,12.53L49.24,161.15c-.0766-4.319-.4912-8.626-1.24-12.88v0Z" fill="#5e5f5f"/><path d="M1.84022,174.85c-5.27,32.54,1.16,60.65,14.34998,62.79s28.17-22.5,33.44-55-1.14-60.64-14.34-62.82-28.16998,22.5-33.44998,55.03Z" fill="#d6d6d6"/><path d="M8.51021,175.94c-4.53,27.92-.93001,51.74,7.99999,53.2s19.92-20,24.45-47.94.92-51.74-8-53.19-19.96,19.99-24.44999,47.93Z" fill="#616161"/><path d="M38.6501,133c4.58,8.63,5.7499,27.25,2.3599,48.18-4.23,26.07-14,46.5-22.64,47.92-4.57-8.63-5.76-27.25-2.36-48.19c4.23-26.05,14.0501-46.47,22.6401-47.91Z" fill="#7cccdc"/><path d="M36.8003,153.34c4.4-7.48-3.62-12.63-8.09-2.52-7.47,16.87-9.14,37.2-9.14,37.2s10.37-23.02,17.23-34.68Z" fill="#c9ebfc"/><path d="M213.48,214l-2.56-.65c0,0-3.82,20.92-20.28,26.8l-3.51-.4c.313.746.852,1.376,1.54,1.801.689.425,1.493.624,2.3.569c2.27-.06,8.26-1.18,14.8-10.45c6.88-9.67,7.71-17.67,7.71-17.67Z" fill="#4b4c4c"/><path d="M145.68,167.54l49.13,10.35c1.445,4.121,2.29,8.428,2.51,12.79l-49.4-10.1c-.19-4.424-.943-8.806-2.24-13.04v0Z" fill="#5e5f5f"/><path d="M351.44,165.73c7.26,5.87.4,20.74-5.68,21.49-61.57-16.33-117-28.13-117-28.13l11.44-40c0,0,72.16,32.25,111.24,46.64Z" fill="#cccdc8"/><path d="M345.76,187.22l-7.69-2c5.54-3.54,10.34-14.8,6.79-21.93c2.28.87,4.48,1.7,6.58,2.47c7.26,5.84.4,20.71-5.68,21.46Z" fill="#4b4c4c"/><path d="M277.17,135.35l1,.36c5.8,2.51,12,5.15,18.27,7.81c7.3,8.7-.28,26-8.1,29.21-6.88-1.66-13.36-3.19-19.34-4.58c8.6-4.33,16.56-23.38,8.17-32.8Z" fill="#4b4c4c"/><path d="M238.92,113.07c4.76,1.91,12.9,5.18,23.23,9.3c12.72,13.87-.4,43.09-13.26,47.08-11.08-2.63-19.76-4.68-25-5.9c13.51-5.55,26.55-34.9,15.03-50.48Z" fill="#4b4c4c"/><path d="M221.69,135.35c-4.15,13.87-2.95,26.48,2.67,28.16s13.55-8.19,17.71-22.06s3-26.48-2.67-28.17-13.56,8.2-17.71,22.07Z" fill="#7d7d7e"/><path d="M224.58,136.56c-3.51,11.72-3.13,22.19.85,23.38s10-7.35,13.56-19.07s3.12-22.18-.85-23.37-10.05,7.34-13.56,19.06Z" fill="#d4d4d3"/><path d="M307.07,164.51l20.66,7c-3.45,7.78-7,8.77-8.43,8.83-7.65-1.94-15.08-3.78-22.17-5.51c5.7-1.08,9.94-10.32,9.94-10.32Z" fill="#6d6e6e"/></g></g><path d="M325.54,355.06l9.94,46.13h-20.14l-8.3-46.96l18.5.83Z" fill="#3a3b3b"/><path d="M263.79,360.78L172.63,812.24h19.67L279.16,359.5l-15.37,1.28Z" fill="#4b4c4c"/><path d="M214.06,662.94c-.126.499-.439.93-.875,1.204s-.96.369-1.465.266c-.503-.124-.938-.438-1.214-.876-.276-.439-.371-.967-.266-1.474l46.35-230.57c.126-.501.441-.934.879-1.208s.966-.368,1.471-.262v0c.501.124.935.436,1.211.872.275.437.372.962.269,1.468L214.06,662.94Z" fill="#616161"/><path d="M263.11,355.06l-9.93,46.13h20.13l8.31-46.96-18.51.83Z" fill="#3a3b3b"/><path d="M305.94,359.42v44.21h-22.68v-43.86l22.68-.35Z" fill="#3a3b3b"/><path d="M335,347.11h-80.88v16.17h80.88v-16.17Z" fill="#4b4c4c"/><path d="M259.2,354c0,1.93,2.37,3.49,5.28,3.49h57.45c2.91,0,5.27-1.56,5.27-3.49v-.48c0-1.93-2.36-3.49-5.27-3.49h-57.45c-2.91,0-5.28,1.56-5.28,3.49v.48Z" fill="#616161"/><path d="M280.86,308.39c6-4.49,16.74-3.37,18.75,2.36c1,2.73-1,6-4.52,6.52c10,3.11,6.72,11.93.93,13c5.76,2.66,2.37,9.69-1.33,10.53-5.14,1.15-10.69.6-14.95-4.54-4.62-5.52-7.95-21.08,1.12-27.87Z" fill="#c87e42"/><path d="M295.69,317.07c-.039-.119-.114-.224-.214-.301-.1-.076-.22-.121-.346-.129-11.38-.57-14.19-.17-14.32-.15-.161.027-.306.117-.401.25-.096.133-.135.298-.109.46.012.082.041.16.084.231s.1.132.167.181c.067.048.143.083.224.101.08.019.164.021.245.007c0,0,2.88-.4,14.05.18.165.003.325-.058.446-.17.121-.111.194-.266.204-.43.015-.078.005-.159-.03-.23v0Z" fill="#de9173"/><path d="M296.61,330.11c-.042-.133-.129-.248-.245-.327-.116-.078-.255-.114-.395-.103-7.3.59-16-1.87-16.09-1.9-.151-.024-.306.008-.436.09-.129.082-.224.209-.267.356s-.031.305.034.444.179.249.319.31c.37.11,9,2.56,16.54,2c.167-.018.321-.099.429-.228s.163-.294.151-.462c.009-.031.011-.064.004-.095-.007-.032-.022-.061-.044-.085Z" fill="#de9173"/><g id="eCRJ6ldkwp092_tr" transform="translate(483.360924,458.54953) rotate(0)"><path d="M486.7,448.55C473,450,468.29,496,356.45,474.5c-1.54-6.94-11.67-7.67-11.67-7.67l.58,3.86c0,0-17,5.58-17.49-4-4.67,1.53-6.41,8.53-1.68,11.16-2.7.87-3.28,9.69,3.29,10.05-2.7,4,.21,8.17,10.31,8.53c5.81.286,11.584-1.069,16.66-3.91c23.11,4.794,46.816,6.038,70.3,3.69c37.43-4.13,52.17-10,60.7-24.44c7.32-12.34,2.98-20.09-.75-23.22Z" transform="translate(-483.817441,-461.209061)" fill="#c87e42"/></g></svg>