<svg id="Layer_1" data-name="Layer 1" xmlns="http://www.w3.org/2000/svg" viewBox="0 0 512 512"><defs><style>.cls-1{fill:#c0ccdd;}.cls-2{fill:#3eb38a;}.cls-3{fill:#fff;}.cls-4{fill:#50b9ff;}.cls-5{fill:#f7818f;}.cls-6{opacity:0.06;}</style></defs><title>user-network-1-flat</title><path class="cls-1" d="M345.61,291.05a6.56,6.56,0,0,1-5.61-3.14l-34.79-57a6.56,6.56,0,1,1,11.2-6.84l34.79,57a6.56,6.56,0,0,1-5.6,10Z"></path><path class="cls-1" d="M166.39,291.05a6.56,6.56,0,0,1-5.6-10l34.79-57a6.56,6.56,0,1,1,11.2,6.84l-34.79,57A6.56,6.56,0,0,1,166.39,291.05Z"></path><path class="cls-2" d="M223.18,374.15A111.59,111.59,0,1,1,111.59,262.56,111.75,111.75,0,0,1,223.18,374.15Z"></path><path class="cls-3" d="M169.57,407.43A60.06,60.06,0,0,0,134,371.72a32.82,32.82,0,1,0-44.89,0,60.07,60.07,0,0,0-35.54,35.71A18.59,18.59,0,0,0,56,424.58a20.59,20.59,0,0,0,16.85,8.65h77.45a20.59,20.59,0,0,0,16.85-8.65A18.59,18.59,0,0,0,169.57,407.43Z"></path><path class="cls-4" d="M512,374.15A111.59,111.59,0,1,1,400.41,262.56,111.75,111.75,0,0,1,512,374.15Z"></path><path class="cls-3" d="M458.39,407.43a60.07,60.07,0,0,0-35.54-35.71,32.82,32.82,0,1,0-44.89,0,60.07,60.07,0,0,0-35.54,35.71,18.59,18.59,0,0,0,2.4,17.15,20.59,20.59,0,0,0,16.85,8.65h77.45A20.59,20.59,0,0,0,456,424.58,18.59,18.59,0,0,0,458.39,407.43Z"></path><path class="cls-5" d="M367.59,137.85A111.59,111.59,0,1,1,256,26.26,111.75,111.75,0,0,1,367.59,137.85Z"></path><path class="cls-3" d="M314,171.12a60.06,60.06,0,0,0-35.54-35.71,32.82,32.82,0,1,0-44.89,0A60.07,60.07,0,0,0,198,171.12a18.59,18.59,0,0,0,2.4,17.15,20.59,20.59,0,0,0,16.85,8.65h77.45a20.59,20.59,0,0,0,16.85-8.65A18.59,18.59,0,0,0,314,171.12Z"></path><g class="cls-6"><path d="M367.59,137.85A111.75,111.75,0,0,1,256,249.44V26.26A111.75,111.75,0,0,1,367.59,137.85Z"></path></g><g class="cls-6"><path d="M512,374.15A111.75,111.75,0,0,1,400.41,485.74V262.56A111.75,111.75,0,0,1,512,374.15Z"></path></g><g class="cls-6"><path d="M223.18,374.15A111.75,111.75,0,0,1,111.59,485.74V262.56A111.75,111.75,0,0,1,223.18,374.15Z"></path></g></svg>